<svg width="21.339142" height="20.000000" viewBox="0 0 21.3391 20" fill="none" xmlns="http://www.w3.org/2000/svg" xmlns:xlink="http://www.w3.org/1999/xlink">
	<desc>
			Created with Pixso.
	</desc>
	<defs>
		<clipPath id="clip3_105">
			<rect width="21.339134" height="20.000000" fill="white" fill-opacity="0"/>
		</clipPath>
	</defs>
	<rect width="21.339134" height="20.000000" fill="#FFFFFF" fill-opacity="0"/>
	<g clip-path="url(#clip3_105)">
		<path d="M16.0036 0.00415039L13.2364 0C10.1276 0 8.1185 1.93188 8.1185 4.92212L8.1185 7.19141L5.33624 7.19141C5.09583 7.19141 4.90112 7.37402 4.90112 7.59937L4.90112 10.8875C4.90112 11.1128 5.09604 11.2954 5.33624 11.2954L8.1185 11.2954L8.1185 19.5923C8.1185 19.8176 8.3132 20 8.55362 20L12.1837 20C12.4241 20 12.6188 19.8174 12.6188 19.5923L12.6188 11.2954L15.8719 11.2954C16.1124 11.2954 16.307 11.1128 16.307 10.8875L16.3084 7.59937C16.3084 7.49121 16.2624 7.3877 16.181 7.31104C16.0995 7.23438 15.9885 7.19141 15.873 7.19141L12.6188 7.19141L12.6188 5.26758C12.6188 4.34302 12.8539 3.87354 14.139 3.87354L16.0031 3.87305C16.2433 3.87305 16.438 3.69019 16.438 3.46509L16.438 0.411865C16.438 0.187012 16.2436 0.00463867 16.0036 0.00415039Z" fill="#FFFFFF" fill-opacity="1.000000" fill-rule="nonzero"/>
	</g>
</svg>
