<svg width="21.338928" height="20.000000" viewBox="0 0 21.3389 20" fill="none" xmlns="http://www.w3.org/2000/svg" xmlns:xlink="http://www.w3.org/1999/xlink">
	<desc>
			Created with Pixso.
	</desc>
	<defs>
		<clipPath id="clip3_108">
			<rect width="21.338913" height="20.000000" fill="white" fill-opacity="0"/>
		</clipPath>
	</defs>
	<rect width="21.338913" height="20.000000" fill="#FFFFFF" fill-opacity="0"/>
	<g clip-path="url(#clip3_108)">
		<path d="M14.6705 0L6.6684 0C2.98611 0 0 2.79883 0 6.25L0 13.75C0 17.2012 2.98611 20 6.6684 20L14.6705 20C18.3528 20 21.3389 17.2012 21.3389 13.75L21.3389 6.25C21.3389 2.79883 18.3528 0 14.6705 0ZM19.3384 13.75C19.3384 16.1626 17.2445 18.125 14.6705 18.125L6.6684 18.125C4.09439 18.125 2.00052 16.1626 2.00052 13.75L2.00052 6.25C2.00052 3.8374 4.09439 1.875 6.6684 1.875L14.6705 1.875C17.2445 1.875 19.3384 3.8374 19.3384 6.25L19.3384 13.75Z" fill="#FFFFFF" fill-opacity="1.000000" fill-rule="nonzero"/>
		<path d="M10.6694 5C7.72333 5 5.33472 7.23877 5.33472 10C5.33472 12.7612 7.72333 15 10.6694 15C13.6155 15 16.0042 12.7612 16.0042 10C16.0042 7.23877 13.6155 5 10.6694 5ZM10.6694 13.125C8.83163 13.125 7.33524 11.7224 7.33524 10C7.33524 8.27637 8.83163 6.875 10.6694 6.875C12.5073 6.875 14.0037 8.27637 14.0037 10C14.0037 11.7224 12.5073 13.125 10.6694 13.125Z" fill="#FFFFFF" fill-opacity="1.000000" fill-rule="nonzero"/>
		<path d="M17.1151 4.62524C17.1151 4.99316 16.7968 5.2915 16.4042 5.2915C16.0116 5.2915 15.6934 4.99316 15.6934 4.62524C15.6934 4.25732 16.0116 3.95898 16.4042 3.95898C16.7968 3.95898 17.1151 4.25732 17.1151 4.62524Z" fill="#FFFFFF" fill-opacity="1.000000" fill-rule="evenodd"/>
	</g>
</svg>
