<svg width="37.401001" height="20.000000" viewBox="0 0 37.401 20" fill="none" xmlns="http://www.w3.org/2000/svg" xmlns:xlink="http://www.w3.org/1999/xlink">
	<desc>
			Created with Pixso.
	</desc>
	<defs/>
	<path d="M37.2026 18.0623C37.1573 17.9707 37.1151 17.8948 37.0759 17.834C36.427 16.7388 35.187 15.3943 33.3566 13.8003L33.3179 13.7637L33.2985 13.7458L33.2789 13.7275L33.2593 13.7275C32.4286 12.9851 31.9025 12.4861 31.6822 12.2307C31.2791 11.7439 31.1888 11.2512 31.4091 10.752C31.5647 10.3748 32.1494 9.57837 33.1617 8.36133C33.6942 7.71655 34.1159 7.19946 34.4273 6.81006C36.6734 4.01147 37.6472 2.22314 37.3484 1.44434L37.2324 1.26221C37.1544 1.15259 36.9532 1.05249 36.629 0.960938C36.3041 0.869873 35.8888 0.854736 35.3824 0.915527L29.7743 0.951904C29.6834 0.921631 29.5537 0.924561 29.3847 0.960938C29.2159 0.997559 29.1314 1.01587 29.1314 1.01587L29.0338 1.06177L28.9564 1.11646C28.8914 1.15283 28.82 1.2168 28.7421 1.30811C28.6645 1.39893 28.5996 1.50586 28.5478 1.62744C27.9372 3.09961 27.243 4.46851 26.4639 5.73389C25.9836 6.48828 25.5424 7.14233 25.1395 7.69604C24.7372 8.24951 24.3996 8.65723 24.1272 8.91846C23.8544 9.18018 23.6082 9.38989 23.3871 9.5481C23.1663 9.70654 22.9977 9.77344 22.881 9.74902C22.7641 9.72461 22.6539 9.7002 22.5496 9.67603C22.368 9.56641 22.2219 9.41748 22.1118 9.22876C22.0011 9.04028 21.9266 8.80298 21.8877 8.51685C21.8489 8.23071 21.826 7.98462 21.8195 7.77783C21.8134 7.57104 21.8162 7.27881 21.8294 6.90161C21.8429 6.52417 21.8489 6.2688 21.8489 6.13501C21.8489 5.67261 21.8586 5.17065 21.8779 4.62939C21.8975 4.08789 21.9134 3.65894 21.9267 3.34277C21.9399 3.02637 21.9461 2.69165 21.9461 2.33887C21.9461 1.98584 21.9232 1.70923 21.8779 1.5083C21.8331 1.30786 21.7644 1.11304 21.674 0.924316C21.5829 0.735596 21.4496 0.589844 21.2747 0.486328C21.0995 0.382812 20.8817 0.300781 20.6224 0.239746C19.9343 0.09375 19.058 0.0148926 17.9933 0.00268555C15.5788 -0.0217285 14.0273 0.124512 13.3393 0.440918C13.0666 0.574463 12.8199 0.75708 12.5994 0.988037C12.3656 1.25586 12.333 1.4021 12.5018 1.42603C13.2808 1.5354 13.8323 1.79712 14.1569 2.21069L14.2739 2.42993C14.3649 2.58813 14.4557 2.86816 14.5466 3.26953C14.6374 3.67114 14.696 4.11523 14.7218 4.60156C14.7866 5.48999 14.7866 6.25049 14.7218 6.88306C14.6568 7.51587 14.5954 8.00854 14.5368 8.36157C14.4782 8.71436 14.3906 9.00024 14.2739 9.21924C14.1569 9.43823 14.0791 9.57202 14.0401 9.62061C14.0011 9.66919 13.9687 9.69995 13.9429 9.71191C13.7741 9.77246 13.5986 9.80347 13.417 9.80347C13.2351 9.80347 13.0145 9.71802 12.7549 9.54761C12.4954 9.3772 12.2261 9.14307 11.9469 8.84497C11.6678 8.54688 11.3529 8.13013 11.0023 7.59473C10.6519 7.05933 10.2884 6.42676 9.91187 5.69678L9.60037 5.16724C9.40564 4.82666 9.13965 4.33081 8.80209 3.67993C8.46436 3.02881 8.1658 2.39893 7.90628 1.79077C7.80255 1.53516 7.6467 1.34058 7.43903 1.20679L7.34155 1.15186C7.27676 1.10327 7.17273 1.05176 7.03006 0.996826C6.88718 0.941895 6.73807 0.902344 6.58215 0.878174L1.24652 0.914551C0.701294 0.914551 0.331329 1.03027 0.136536 1.26147L0.0585938 1.37085C0.0196533 1.43188 0 1.52905 0 1.66309C0 1.79688 0.0389404 1.96118 0.116913 2.15576C0.895813 3.87134 1.74286 5.52612 2.65802 7.12012C3.57321 8.71411 4.36847 9.99805 5.04337 10.9707C5.71841 11.9443 6.40646 12.863 7.10754 13.7268C7.80862 14.5908 8.27267 15.1443 8.49976 15.3877C8.72708 15.6313 8.90564 15.8135 9.03543 15.9351L9.52234 16.373C9.83392 16.6653 10.2914 17.0149 10.8951 17.4226C11.4989 17.8303 12.1674 18.2317 12.9009 18.6274C13.6345 19.0227 14.488 19.345 15.4617 19.5945C16.4354 19.844 17.383 19.9443 18.3048 19.896L20.5443 19.896C20.9984 19.8591 21.3425 19.7253 21.5764 19.4941L21.6539 19.4028C21.706 19.3301 21.7548 19.2173 21.7998 19.0654C21.8453 18.9133 21.868 18.7458 21.868 18.5637C21.8547 18.0405 21.8972 17.5691 21.9943 17.1494C22.0914 16.7297 22.202 16.4133 22.3257 16.2002C22.4494 15.9873 22.5889 15.8079 22.7442 15.6621C22.8999 15.5161 23.0108 15.4277 23.0758 15.3975C23.1405 15.3667 23.1921 15.3459 23.2311 15.3335C23.5426 15.2363 23.9093 15.3306 24.3316 15.6167C24.7536 15.9026 25.1494 16.2556 25.5196 16.6753C25.8896 17.0952 26.3342 17.5664 26.8534 18.0896C27.3729 18.6128 27.8271 19.002 28.2165 19.2578L28.6058 19.4768C28.8658 19.6228 29.2033 19.7568 29.6188 19.8784C30.0336 20 30.397 20.0305 30.709 19.9697L35.6939 19.8967C36.187 19.8967 36.5706 19.8203 36.8428 19.6685C37.1155 19.5164 37.2775 19.3489 37.3297 19.1665C37.3818 18.9841 37.3846 18.7771 37.3396 18.5457C37.2934 18.3149 37.2479 18.1533 37.2026 18.0623Z" fill="#FFFFFF" fill-opacity="1.000000" fill-rule="nonzero"/>
</svg>
