<svg width="30.155670" height="20.000000" viewBox="0 0 30.1557 20" fill="none" xmlns="http://www.w3.org/2000/svg" xmlns:xlink="http://www.w3.org/1999/xlink">
	<desc>
			Created with Pixso.
	</desc>
	<defs/>
	<path d="M23.8927 0L6.26294 0C2.80402 0 0 2.62817 0 5.86987L0 14.1301C0 17.3718 2.80402 20 6.26294 20L23.8927 20C27.3517 20 30.1557 17.3718 30.1557 14.1301L30.1557 5.86987C30.1557 2.62817 27.3517 0 23.8927 0ZM19.6571 10.4019L11.4111 14.0879C11.1914 14.1863 10.9376 14.0361 10.9376 13.8079L10.9376 6.20532C10.9376 5.97388 11.1981 5.82397 11.4182 5.92847L19.6642 9.84497C19.9094 9.96143 19.9052 10.291 19.6571 10.4019Z" fill="#FFFFFF" fill-opacity="1.000000" fill-rule="nonzero"/>
</svg>
