<svg width="21.000000" height="21.000000" viewBox="0 0 21 21" fill="none" xmlns="http://www.w3.org/2000/svg" xmlns:xlink="http://www.w3.org/1999/xlink">
	<desc>
			Created with Pixso.
	</desc>
	<defs>
		<clipPath id="clip1_25">
			<rect width="21.000000" height="21.000000" fill="white" fill-opacity="0"/>
		</clipPath>
	</defs>
	<rect width="21.000000" height="21.000000" fill="#FFFFFF" fill-opacity="0"/>
	<g clip-path="url(#clip1_25)">
		<path d="M10.5684 4.60217C9.08841 4.60217 7.88379 5.80679 7.88379 7.28676C7.88379 8.76674 9.08841 9.97134 10.5684 9.97134C12.0483 9.97134 13.253 8.76674 13.253 7.28676C13.253 5.80679 12.0483 4.60217 10.5684 4.60217ZM10.5684 9.20433C9.51105 9.20433 8.65082 8.3441 8.65082 7.28676C8.65082 6.22942 9.51105 5.3692 10.5684 5.3692C11.6257 5.3692 12.4859 6.22942 12.4859 7.28676C12.4859 8.3441 11.6257 9.20433 10.5684 9.20433Z" fill="#FFFFFF" fill-opacity="1.000000" fill-rule="nonzero"/>
		<path d="M15.7011 2.15419C14.3121 0.765106 12.4651 0 10.5007 0C8.53598 0 6.68939 0.765106 5.30029 2.15419C2.72961 4.72449 2.41016 9.56059 4.60843 12.4906L10.5007 21L16.3842 12.5025C18.5913 9.56058 18.2719 4.72449 15.7011 2.15419ZM15.7621 12.0542L10.5007 19.6523L5.23087 12.0423C3.237 9.38379 3.52271 5.01634 5.84296 2.69647C7.08707 1.45236 8.74118 0.767029 10.5007 0.767029C12.2603 0.767029 13.9144 1.45236 15.1589 2.69647C17.4791 5.01634 17.7648 9.38379 15.7621 12.0542Z" fill="#FFFFFF" fill-opacity="1.000000" fill-rule="nonzero"/>
	</g>
</svg>
