<svg width="134.000000" height="66.000000" viewBox="0 0 134 66" fill="none" xmlns="http://www.w3.org/2000/svg" xmlns:xlink="http://www.w3.org/1999/xlink">
	<desc>
			Created with Pixso.
	</desc>
	<defs/>
	<path d="M41.8008 18.2285L41.8008 21.0762L44.1211 21.0762L44.1562 30.8496Q44.1562 32.6074 44.5078 33.8027Q44.8257 34.8358 45.4918 35.539Q46.8886 37.0133 49.8164 37.0371L51.082 37.0371L50.4141 34.0488L49.9219 34.0488Q49.5352 34.0488 49.1484 33.9785Q48.3532 33.8688 47.8681 33.4222Q47.1094 32.7237 47.1094 31.2012L47.1094 21.1113L49.3594 21.1113L49.3594 18.2285L47.1094 18.2285L47.1094 12.1465L44.1211 12.1465L44.1211 18.2285L41.8008 18.2285ZM32.168 19.5645L32.168 22.4473L34.4883 22.4473L34.4883 37.0371L37.4414 37.0371L37.4414 22.4473L39.832 22.4473L39.832 19.5645L37.4414 19.5996L37.4414 17.5254Q37.462 16.147 38.1567 15.5391Q38.6492 15.1082 39.4805 15.0645L40.1484 15.0645L40.8164 12.2168L39.5156 12.2168Q38.2742 12.2359 37.2817 12.7427Q36.4474 13.1687 35.7891 13.9395Q34.9842 14.9402 34.6773 16.0755Q34.4883 16.7749 34.4883 17.5254L34.4883 19.5645L32.168 19.5645ZM1.44141 12.4277L1.44141 37.0371L14.6602 37.0371L14.6602 34.0137L4.5 34.0137L4.5 12.4277L1.44141 12.4277ZM52.6641 12.4277L52.6641 37.0371L55.7227 37.0371L55.7227 26.1387L58.8867 26.1387L58.8867 23.1504L55.7227 23.1504L55.7227 12.4277L52.6641 12.4277ZM60.6445 23.1504L60.6445 26.1387L63.7734 26.1387L63.7734 37.0371L66.8672 37.0371L66.8672 12.4277L63.7734 12.4277L63.7734 23.1504L60.6445 23.1504ZM102.282 20.7537Q101.637 21.8925 101.637 23.3965Q101.637 24.0996 101.777 24.7324Q101.892 25.1702 102.095 25.5625Q102.885 27.0922 105.012 27.9316Q105.75 28.1777 107.402 28.5645Q108.949 28.9512 109.652 29.1621Q112.156 29.9227 112.403 31.1405Q112.43 31.2736 112.43 31.4121Q112.43 31.9053 112.271 32.3409Q112.08 32.8679 111.656 33.3105Q111.168 33.814 110.575 34.0922Q109.843 34.4355 108.949 34.4355L108.949 37.2129Q110.661 37.2129 112.051 36.5437Q112.317 36.4159 112.57 36.2637Q113.736 35.5674 114.399 34.5453Q115.277 33.1934 115.277 31.2715Q115.277 30.1712 114.856 29.2678Q114.806 29.1608 114.75 29.0566Q114.436 28.4833 113.993 28.0398Q112.995 27.0419 111.34 26.7012Q107.508 25.7871 106.172 25.2246Q104.669 24.6236 104.451 23.7144Q104.414 23.5599 104.414 23.3965Q104.414 23.2172 104.441 23.0422Q104.525 22.496 104.871 21.9902Q105.3 21.3389 105.904 21.0051Q106.538 20.6543 107.367 20.6543L107.367 17.9121Q105.961 17.9121 104.555 18.6504Q103.008 19.4701 102.282 20.7537ZM108.914 17.9121L108.914 20.6895Q109.441 20.6895 110.074 20.9355Q111.367 21.4096 111.868 22.3195Q112.184 22.8941 112.184 23.6426L114.961 23.1855Q114.961 22.9278 114.93 22.6739Q114.772 21.3687 113.801 20.1621Q112.957 19.1436 111.876 18.5862Q110.569 17.9121 108.914 17.9121ZM16.6289 23.1504L16.6289 31.834Q16.6289 33.0293 17.5078 34.3652Q18.3758 35.6505 19.5846 36.3256Q20.9217 37.0723 22.6758 37.0723L22.6758 34.2246Q22.0417 34.2246 21.491 34.0104Q21.0951 33.8565 20.7422 33.5918Q19.9278 32.9691 19.6683 32.1668Q19.5469 31.7915 19.5469 31.377L19.5469 23.6426Q19.5469 23.1152 19.793 22.5879Q20.137 21.8549 20.7102 21.4338Q21.4841 20.8652 22.6758 20.8652L22.6758 18.0176Q21.1276 18.0176 19.8707 18.6227Q18.9015 19.0894 18.1055 19.916Q16.7074 21.4139 16.6331 22.9749Q16.6289 23.0625 16.6289 23.1504ZM24.1875 34.2246L24.1875 37.0723Q25.6681 37.0525 26.8605 36.4563Q27.7916 35.9908 28.5469 35.1738Q29.901 33.6907 30.0133 32.1189Q30.0234 31.9768 30.0234 31.834L30.0234 23.1504Q30.0234 21.9551 29.1445 20.6543Q28.3059 19.3964 27.1313 18.7386Q25.8437 18.0176 24.1523 18.0176L24.1523 20.8652Q24.8652 20.8652 25.4674 21.1233Q25.6968 21.2216 25.9102 21.3574Q26.5742 21.8127 26.8798 22.4421Q27.1406 22.979 27.1406 23.6426L27.1406 31.4473Q27.1406 31.9746 26.8594 32.5371Q26.452 33.3872 25.7771 33.809Q25.1122 34.2246 24.1875 34.2246ZM69.6094 23.1504L69.6094 31.834Q69.6094 33.0293 70.4883 34.3652Q71.3563 35.6505 72.5651 36.3256Q73.9022 37.0723 75.6562 37.0723L75.6562 34.2246Q75.0222 34.2246 74.4715 34.0104Q74.0755 33.8565 73.7227 33.5918Q72.9083 32.9691 72.6488 32.1668Q72.5273 31.7915 72.5273 31.377L72.5273 23.6426Q72.5273 23.1152 72.7734 22.5879Q73.1175 21.8549 73.6906 21.4338Q74.4646 20.8652 75.6562 20.8652L75.6562 18.0176Q74.108 18.0176 72.8512 18.6227Q71.8819 19.0894 71.0859 19.916Q69.6879 21.4139 69.6135 22.9749Q69.6094 23.0625 69.6094 23.1504ZM77.168 34.2246L77.168 37.0723Q78.6486 37.0525 79.841 36.4563Q80.772 35.9908 81.5273 35.1738Q82.8815 33.6907 82.9938 32.1189Q83.0039 31.9768 83.0039 31.834L83.0039 23.1504Q83.0039 21.9551 82.125 20.6543Q81.2864 19.3964 80.1118 18.7386Q78.8242 18.0176 77.1328 18.0176L77.1328 20.8652Q77.8456 20.8652 78.4478 21.1233Q78.6773 21.2216 78.8906 21.3574Q79.5546 21.8127 79.8603 22.4421Q80.1211 22.979 80.1211 23.6426L80.1211 31.4473Q80.1211 31.9746 79.8398 32.5371Q79.4325 33.3872 78.7576 33.809Q78.0926 34.2246 77.168 34.2246ZM117.352 23.1152L117.352 31.834Q117.352 33.0645 118.336 34.4355Q119.237 35.7176 120.471 36.3678Q121.741 37.0371 123.363 37.0371L123.363 34.2949Q123.097 34.2949 122.838 34.2517Q122.105 34.1296 121.43 33.6621Q120.426 32.9092 120.318 32.0444Q120.305 31.94 120.305 31.834L120.305 28.6699L130.992 28.6699L130.992 23.0801Q130.985 22.6958 130.909 22.3255Q130.624 20.9342 129.375 19.7402Q128.225 18.6965 126.881 18.2852Q126.007 18.0176 125.051 18.0176L125.051 20.7598Q125.219 20.7598 125.386 20.7764Q125.985 20.8363 126.562 21.1113Q127.531 21.5534 127.919 22.2981Q128.18 22.7969 128.18 23.4316L128.18 25.8223L120.305 25.8223L120.305 23.4316Q120.305 22.9043 120.691 22.2715Q121.207 21.4699 121.94 21.1035Q122.557 20.7949 123.328 20.7949L123.328 18.0176Q122.042 18.035 120.945 18.4991Q119.823 18.9739 118.898 19.916Q117.39 21.4945 117.352 23.1079L117.352 23.1152ZM85.6758 18.0527L85.6758 31.9746Q85.6758 33.2402 86.5898 34.5762Q87.3967 35.7399 88.5048 36.39Q89.9075 37.2129 91.793 37.2129L91.793 34.2598Q91.2016 34.2598 90.6694 34.0824Q90.2841 33.9539 89.9297 33.7324Q89.0437 33.1418 88.778 32.3445Q88.6641 32.0027 88.6641 31.623L88.6641 18.0527L85.6758 18.0527ZM93.3398 34.2598L93.3398 37.2129Q94.8468 37.1936 96.0778 36.6009Q97.0867 36.1151 97.9102 35.2441Q99.3835 33.668 99.4209 32.0585Q99.4219 32.0166 99.4219 31.9746L99.4219 18.0527L96.4336 18.0527L96.4336 31.623Q96.4336 32.1855 96.1172 32.748Q95.7499 33.3797 95.2047 33.7474Q94.445 34.2598 93.3398 34.2598ZM104.238 31.5176L101.461 32.0449Q101.461 32.3111 101.492 32.5735Q101.627 33.6974 102.34 34.752Q102.929 35.6108 103.728 36.1699Q105.217 37.2129 107.438 37.2129L107.438 34.4355Q106.699 34.4004 105.891 34.0137Q104.788 33.4037 104.421 32.4963Q104.238 32.0439 104.238 31.5176ZM125.051 34.2598L125.051 37.0371Q125.947 37.0371 126.781 36.8096Q127.485 36.6177 128.145 36.2637Q129.351 35.6041 130.092 34.601Q130.734 33.7328 131.027 32.6074L128.531 31.6934Q128.426 32.0449 128.215 32.4316Q127.687 33.3467 126.895 33.8037Q126.104 34.2598 125.051 34.2598Z" fill="#FFFFFF" fill-opacity="1.000000" fill-rule="evenodd"/>
	<path d="M48.7647 53.168C49.0767 52.936 49.2407 52.628 49.2567 52.244L48.7527 52.244C48.7207 52.476 48.5887 52.668 48.3567 52.82C48.1327 52.964 47.8487 53.036 47.5047 53.036C47.3207 53.036 47.1527 53.016 47.0007 52.976C46.8487 52.928 46.7167 52.868 46.6047 52.796C46.4927 52.724 46.4047 52.64 46.3407 52.544C46.2767 52.448 46.2447 52.348 46.2447 52.244L45.7287 52.244C45.7447 52.628 45.9047 52.936 46.2087 53.168C46.5207 53.392 46.9487 53.504 47.4927 53.504Q48.3087 53.504 48.7647 53.168ZM35.325 62.936C35.821 63.176 36.365 63.296 36.957 63.296Q37.5999 63.296 38.1744 63.0979Q38.3613 63.0334 38.541 62.948C39.029 62.708 39.449 62.392 39.801 62C40.161 61.6 40.441 61.14 40.641 60.62C40.849 60.1 40.953 59.556 40.953 58.988C40.953 58.452 40.857 57.928 40.665 57.416C40.473 56.896 40.201 56.432 39.849 56.024C39.505 55.616 39.085 55.288 38.589 55.04C38.101 54.784 37.561 54.656 36.969 54.656C36.401 54.656 35.873 54.776 35.385 55.016C34.897 55.248 34.473 55.564 34.113 55.964C33.753 56.364 33.469 56.824 33.261 57.344C33.061 57.864 32.961 58.408 32.961 58.976Q32.961 59.2606 32.996 59.5407Q33.0614 60.064 33.249 60.572C33.441 61.092 33.713 61.556 34.065 61.964C34.417 62.364 34.837 62.688 35.325 62.936ZM69.0225 62.936C69.5185 63.176 70.0625 63.296 70.6545 63.296Q71.2973 63.296 71.8718 63.0979Q72.0588 63.0334 72.2385 62.948C72.7265 62.708 73.1465 62.392 73.4985 62C73.8585 61.6 74.1385 61.14 74.3385 60.62C74.5465 60.1 74.6505 59.556 74.6505 58.988Q74.6505 58.7117 74.6165 58.4397Q74.5515 57.9201 74.3625 57.416C74.1705 56.896 73.8985 56.432 73.5465 56.024C73.2025 55.616 72.7825 55.288 72.2865 55.04C71.7985 54.784 71.2585 54.656 70.6665 54.656Q70.0615 54.656 69.5171 54.8375Q69.2947 54.9116 69.0825 55.016C68.5945 55.248 68.1705 55.564 67.8105 55.964C67.4505 56.364 67.1665 56.824 66.9585 57.344C66.7585 57.864 66.6585 58.408 66.6585 58.976Q66.6585 59.2606 66.6935 59.5407Q66.7589 60.064 66.9465 60.572C67.1385 61.092 67.4105 61.556 67.7625 61.964C68.1145 62.364 68.5345 62.688 69.0225 62.936ZM125.871 57.392C125.695 57.896 125.607 58.404 125.607 58.916Q125.607 59.1073 125.623 59.2973Q125.674 59.9177 125.895 60.524C126.095 61.044 126.371 61.512 126.723 61.928Q126.902 62.1361 127.105 62.3178Q127.5 62.6705 127.983 62.924C128.471 63.18 129.007 63.308 129.591 63.308C129.919 63.308 130.251 63.264 130.587 63.176C130.931 63.088 131.255 62.96 131.559 62.792C131.863 62.624 132.139 62.42 132.387 62.18C132.635 61.932 132.827 61.648 132.963 61.328L132.267 60.968Q132.063 61.388 131.763 61.688C131.563 61.88 131.343 62.044 131.103 62.18C130.871 62.308 130.627 62.404 130.371 62.468Q129.999 62.552 129.639 62.552Q129.152 62.552 128.713 62.4058Q128.536 62.3468 128.367 62.264C127.983 62.064 127.647 61.8 127.359 61.472Q126.939 60.968 126.687 60.32C126.527 59.888 126.447 59.436 126.447 58.964C126.447 58.532 126.515 58.108 126.651 57.692C126.787 57.268 126.987 56.888 127.251 56.552C127.523 56.216 127.855 55.944 128.247 55.736C128.639 55.528 129.091 55.424 129.603 55.424C129.835 55.424 130.071 55.452 130.311 55.508C130.551 55.556 130.783 55.64 131.007 55.76C131.231 55.88 131.439 56.036 131.631 56.228Q131.931 56.516 132.135 56.936L132.795 56.528C132.539 55.976 132.139 55.528 131.595 55.184C131.059 54.84 130.411 54.668 129.651 54.668C129.011 54.668 128.439 54.796 127.935 55.052C127.431 55.3 127.007 55.624 126.663 56.024Q126.524 56.185 126.403 56.3581Q126.073 56.8301 125.871 57.392ZM0.348 54.716L2.892 58.82L0.036 63.236L1.008 63.236L3.492 59.24L5.208 59.24L5.208 63.236L6.132 63.236L6.132 59.24L7.848 59.24L10.332 63.236L11.304 63.236L8.436 58.82L10.992 54.716L10.02 54.716L7.728 58.496L6.132 58.496L6.132 54.716L5.208 54.716L5.208 58.496L3.612 58.496L1.308 54.716L0.348 54.716ZM19.9838 54.716L14.7038 61.976L14.7038 54.716L13.8758 54.716L13.8758 63.236L14.6438 63.236L19.8398 56.096L19.8398 63.236L20.6798 63.236L20.6798 54.716L19.9838 54.716ZM25.8403 59.864Q26.0683 58.664 26.2123 56.972L26.3323 55.46L29.0683 55.46L29.0683 63.236L29.8963 63.236L29.8963 54.716L25.5643 54.716L25.3843 56.9Q25.2883 58.1 25.1563 58.976C25.0763 59.56 24.9843 60.06 24.8803 60.476C24.7763 60.884 24.6643 61.22 24.5443 61.484C24.4243 61.74 24.2963 61.944 24.1603 62.096C24.0243 62.24 23.8803 62.34 23.7283 62.396C23.5843 62.452 23.4323 62.484 23.2723 62.492L23.4163 63.296C23.8323 63.296 24.1923 63.18 24.4963 62.948C24.8083 62.708 25.0723 62.336 25.2883 61.832Q25.6243 61.064 25.8403 59.864ZM50.0967 54.716L44.8167 61.976L44.8167 54.716L43.9887 54.716L43.9887 63.236L44.7567 63.236L49.9527 56.096L49.9527 63.236L50.7927 63.236L50.7927 54.716L50.0967 54.716ZM61.0279 58.496L59.7319 58.496L59.7319 54.716L58.9039 54.716L58.9039 63.236L59.7319 63.236L59.7319 59.24L61.0999 59.24L64.1239 63.236L65.0839 63.236L61.7839 58.82L64.7719 54.716L63.8119 54.716L61.0279 58.496ZM85.2222 56.24L85.2222 63.236L86.0622 63.236L86.0622 54.716L85.2102 54.716L81.8622 60.548L78.5382 54.716L77.6742 54.716L77.6742 63.236L78.5142 63.236L78.5142 56.24L81.6222 61.652L82.1142 61.652L85.2222 56.24ZM96.2608 54.716L89.6848 54.716L89.6848 63.236L90.5128 63.236L90.5128 55.46L95.4208 55.46L95.4208 63.236L96.2608 63.236L96.2608 54.716ZM101.415 59.864Q101.643 58.664 101.787 56.972L101.907 55.46L104.643 55.46L104.643 63.236L105.471 63.236L105.471 54.716L101.139 54.716L100.959 56.9C100.895 57.7 100.819 58.392 100.731 58.976C100.651 59.56 100.559 60.06 100.455 60.476C100.351 60.884 100.239 61.22 100.119 61.484C99.999 61.74 99.871 61.944 99.735 62.096C99.599 62.24 99.455 62.34 99.303 62.396C99.159 62.452 99.007 62.484 98.847 62.492L98.991 63.296C99.407 63.296 99.767 63.18 100.071 62.948C100.383 62.708 100.647 62.336 100.863 61.832C101.087 61.32 101.271 60.664 101.415 59.864ZM114.824 63.236L114.824 62.492L109.94 62.492L109.94 59.24L114.104 59.24L114.104 58.532L109.94 58.532L109.94 55.46L114.716 55.46L114.716 54.716L109.1 54.716L109.1 63.236L114.824 63.236ZM119.988 58.496L118.692 58.496L118.692 54.716L117.864 54.716L117.864 63.236L118.692 63.236L118.692 59.24L120.06 59.24L123.084 63.236L124.044 63.236L120.744 58.82L123.732 54.716L122.772 54.716L119.988 58.496ZM33.8873 59.8144Q33.801 59.4043 33.801 58.976C33.801 58.536 33.873 58.104 34.017 57.68C34.169 57.256 34.381 56.876 34.653 56.54C34.925 56.204 35.257 55.936 35.649 55.736Q35.7501 55.6824 35.855 55.638Q36.3608 55.424 36.957 55.424Q37.5138 55.424 37.9938 55.616Q38.1138 55.664 38.229 55.724C38.613 55.916 38.945 56.176 39.225 56.504C39.505 56.832 39.721 57.212 39.873 57.644C40.033 58.068 40.113 58.512 40.113 58.976Q40.113 59.1749 40.0923 59.3717Q40.0443 59.8277 39.885 60.272C39.741 60.696 39.533 61.076 39.261 61.412C38.989 61.748 38.657 62.02 38.265 62.228C37.873 62.436 37.437 62.54 36.957 62.54C36.485 62.54 36.057 62.444 35.673 62.252Q35.3694 62.0939 35.1092 61.8824Q34.8756 61.6927 34.677 61.46Q34.5678 61.329 34.4716 61.1891Q34.1977 60.7907 34.029 60.32Q33.9413 60.0708 33.8873 59.8144ZM67.7265 60.32C67.5745 59.888 67.4985 59.44 67.4985 58.976Q67.4985 58.7546 67.5228 58.536Q67.5709 58.1027 67.7145 57.68C67.8665 57.256 68.0785 56.876 68.3505 56.54C68.6225 56.204 68.9545 55.936 69.3465 55.736C69.7385 55.528 70.1745 55.424 70.6545 55.424C71.1185 55.424 71.5425 55.524 71.9265 55.724Q72.1982 55.8598 72.4352 56.0411Q72.7006 56.2441 72.9225 56.504C73.2025 56.832 73.4185 57.212 73.5705 57.644C73.7305 58.068 73.8105 58.512 73.8105 58.976C73.8105 59.416 73.7345 59.848 73.5825 60.272Q73.4135 60.7697 73.1269 61.1866Q73.0472 61.3024 72.9585 61.412Q72.8211 61.5818 72.6632 61.7298Q72.3524 62.0211 71.9625 62.228C71.5705 62.436 71.1345 62.54 70.6545 62.54Q69.9953 62.54 69.4505 62.2903Q69.4102 62.2718 69.3705 62.252C68.9865 62.052 68.6545 61.788 68.3745 61.46C68.0945 61.124 67.8785 60.744 67.7265 60.32Z" fill="#FFFFFF" fill-opacity="1.000000" fill-rule="evenodd"/>
</svg>
